<?xml version="1.0" encoding="iso-8859-1"?>
<!-- Uploaded to: SVG Repo, www.svgrepo.com, Generator: SVG Repo Mixer Tools -->
<svg fill="#ffffff" height="800px" width="800px" version="1.1" id="Layer_1" xmlns="http://www.w3.org/2000/svg" xmlns:xlink="http://www.w3.org/1999/xlink" 
	 viewBox="0 0 512.004 512.004" xml:space="preserve">
<g transform="translate(0 -1)">
	<g>
		<g>
			<path d="M145.586,159.688c0.674,3.942,2.039,7.817,4.181,11.529c0.145,0.247,0.213,0.529,0.333,0.794
				c1.971,3.302,4.412,6.153,7.194,8.55c0.606,0.512,1.195,1.041,1.835,1.51c0.683,0.503,1.391,0.973,2.116,1.434
				c1.28,0.794,2.594,1.536,3.985,2.167c0.29,0.128,0.563,0.299,0.862,0.427c1.775,0.742,3.644,1.297,5.564,1.732
				c0.469,0.102,0.947,0.196,1.425,0.282c1.997,0.367,4.028,0.623,6.127,0.623c2.091,0,4.122-0.256,6.11-0.623
				c0.486-0.085,0.964-0.179,1.442-0.29c1.911-0.427,3.772-0.981,5.547-1.724c0.316-0.128,0.614-0.316,0.93-0.461
				c1.357-0.623,2.654-1.34,3.908-2.125c0.734-0.461,1.459-0.939,2.15-1.459c0.623-0.452,1.195-0.973,1.775-1.468
				c2.79-2.398,5.248-5.248,7.228-8.55c0.119-0.273,0.188-0.563,0.341-0.819c2.142-3.712,3.507-7.578,4.181-11.529
				c0.222-1.459,0.418-2.927,0.452-4.437c0.009-0.256,0.051-0.521,0.051-0.776c-0.043-11.034-5.41-20.753-13.594-26.974
				c-0.026-0.017-0.051-0.017-0.068-0.034c-1.468-1.109-3.004-2.065-4.591-2.901c-0.085-0.051-0.179-0.102-0.273-0.154
				c-1.553-0.802-3.157-1.476-4.787-2.022c-0.137-0.051-0.282-0.085-0.418-0.128c-6.75-2.176-14.029-2.176-20.779,0
				c-0.137,0.043-0.282,0.077-0.418,0.128c-1.63,0.546-3.234,1.22-4.787,2.022c-0.094,0.051-0.179,0.102-0.273,0.154
				c-1.587,0.836-3.123,1.792-4.591,2.901c-0.026,0.017-0.051,0.026-0.077,0.043c-8.175,6.212-13.542,15.932-13.585,26.965
				c0,0.256,0.043,0.512,0.051,0.768C145.16,156.762,145.365,158.229,145.586,159.688z"/>
			<path d="M170.85,104.143c2.731-0.452,5.504-0.742,8.354-0.742c2.85,0,5.623,0.29,8.354,0.742
				c0.171,0.026,0.333,0.051,0.503,0.077c2.825,0.495,5.564,1.229,8.209,2.167V26.601h-34.133v79.787
				c2.645-0.939,5.385-1.672,8.209-2.167C170.517,104.194,170.679,104.169,170.85,104.143z"/>
			<path d="M323.733,141.757c-0.111,5.12-0.256,11.221-0.555,17.749c-0.026,0.589-0.051,1.178-0.085,1.766
				c-0.068,1.365-0.145,2.731-0.23,4.13c-0.094,1.579-0.196,3.14-0.316,4.702c-0.034,0.529-0.06,1.033-0.102,1.562h189.559v-34.133
				H323.819C323.785,138.83,323.75,140.247,323.733,141.757z"/>
			<path d="M166.345,204.098c-6.972-1.809-13.372-5.035-18.867-9.387c-1.92,5.308-4.574,10.232-7.765,14.746
				c-0.137,0.188-0.29,0.375-0.427,0.572c-0.862,1.178-1.749,2.338-2.679,3.464c-0.478,0.58-0.973,1.152-1.476,1.724
				c-0.623,0.708-1.254,1.399-1.903,2.082c-0.657,0.691-1.323,1.374-2.005,2.048c-0.58,0.555-1.169,1.092-1.766,1.63
				c-0.725,0.666-1.442,1.34-2.202,1.98c-1.306,1.092-2.637,2.142-3.994,3.14c-0.35,0.247-0.708,0.486-1.058,0.734
				c-1.34,0.947-2.697,1.852-4.07,2.697c-0.094,0.06-0.179,0.128-0.273,0.179l-9.464,20.292l14.643-2.338
				c0.452-0.077,0.905-0.111,1.348-0.111c2.97,0,5.769,1.553,7.313,4.147l7.543,12.587l13.466-29.5l13.952-30.583
				C166.55,204.175,166.448,204.124,166.345,204.098z"/>
			<path d="M214.835,263.437l7.031-11.733c1.783-2.995,5.214-4.625,8.67-4.045l14.643,2.338l-11.767-25.242
				c-0.051-0.043-0.094-0.085-0.154-0.128c-2.364-1.86-4.642-3.874-6.81-6.033c-0.324-0.324-0.64-0.649-0.956-0.973
				c-1.877-1.946-3.661-4.011-5.316-6.178c-0.316-0.41-0.623-0.828-0.922-1.246c-1.587-2.176-3.055-4.446-4.369-6.818
				c-0.171-0.307-0.324-0.614-0.486-0.922c-1.323-2.483-2.5-5.06-3.473-7.74v-0.009c-5.623,4.463-12.194,7.731-19.362,9.523
				c-0.12,0.026-0.23,0.068-0.341,0.102l7.398,18.517l14.106,35.294v0.017L214.835,263.437z"/>
			<path d="M35.308,161.276c-0.026-0.58-0.051-1.161-0.077-1.749c-0.299-6.536-0.444-12.638-0.555-17.766
				c-0.009-0.503-0.017-0.922-0.026-1.399c-0.017-0.99-0.043-1.937-0.06-2.825H0.006v34.133h35.959
				c-0.043-0.529-0.068-1.033-0.111-1.562c-0.111-1.562-0.222-3.123-0.316-4.702C35.453,164.006,35.377,162.641,35.308,161.276z"/>
			<path d="M107.523,121.859l22.852,17.143c0.358-1.143,0.862-2.219,1.297-3.328c0.222-0.555,0.444-1.101,0.683-1.647
				c1.451-3.345,3.132-6.596,5.299-9.583c-0.802-1.058-1.647-2.193-2.56-3.396c-10.65-14.165-32.742-43.571-52.062-43.571
				c-0.128,0-0.247,0.008-0.358,0.008c-12.809,0.239-22.101,5.513-27.631,15.667c-2.662,4.907-4.403,27.836-3.686,36.651
				c0.196,2.517,0.29,6.545,0.393,11.58v0.222c0.094,4.582,0.222,9.95,0.461,15.676c0.051,1.05,0.094,2.099,0.154,3.183
				c0.094,1.946,0.222,3.934,0.358,5.939c0.085,1.297,0.171,2.594,0.282,3.917c0.179,2.278,0.401,4.565,0.648,6.869
				c1.741,16.247,5.154,32.367,12.117,39.33c9.037,9.02,24.132,7.33,35.251,2.722c1.954-0.811,3.9-1.758,5.828-2.825
				c0.085-0.051,0.154-0.137,0.239-0.188c3.081-1.715,6.212-3.883,9.199-6.4c0.154-0.128,0.316-0.247,0.469-0.384
				c1.331-1.135,2.603-2.381,3.849-3.661c0.273-0.282,0.546-0.555,0.811-0.845c1.135-1.212,2.193-2.517,3.217-3.849
				c0.35-0.452,0.691-0.913,1.024-1.374c0.887-1.246,1.707-2.543,2.483-3.883c0.393-0.674,0.751-1.365,1.101-2.065
				c0.631-1.229,1.212-2.483,1.724-3.772c0.358-0.913,0.649-1.852,0.939-2.79c0.375-1.195,0.734-2.398,0.998-3.644
				c0.239-1.101,0.367-2.244,0.503-3.388c0.094-0.777,0.171-1.562,0.222-2.364c-1.331-2.603-2.483-5.325-3.362-8.166l-22.741,17.058
				c-1.536,1.152-3.328,1.715-5.112,1.715c-2.603,0-5.154-1.178-6.835-3.422c-2.833-3.763-2.065-9.114,1.715-11.938l25.028-18.773
				l-25.028-18.782c-3.78-2.825-4.548-8.175-1.715-11.938C98.41,119.794,103.752,119.035,107.523,121.859z"/>
			<path d="M40.047,85.002h0.009c8.422-15.497,23.441-24.218,42.291-24.585c0.23,0,0.469-0.009,0.691-0.009
				c25.574,0,47.607,26.564,62.029,45.534V26.6H25.6C11.486,26.6,0,38.086,0,52.2v68.267h34.236
				C34.551,108.913,36.028,92.401,40.047,85.002z"/>
			<path d="M140.275,291.138c-2.995,0-5.777-1.57-7.322-4.156l-12.92-21.555l-24.815,3.968c-3.115,0.495-6.255-0.759-8.158-3.285
				c-1.903-2.526-2.253-5.88-0.922-8.747l8.602-18.466c-3.806,0.759-7.561,1.161-11.196,1.161c-11.725,0-22.263-3.9-29.841-11.469
				c-8.644-8.644-13.261-23.151-15.812-39.851H0.004v273.067c0,14.114,11.486,25.6,25.6,25.6h119.467V289.653
				c-1.263,0.853-2.748,1.374-4.326,1.468C140.591,291.129,140.429,291.138,140.275,291.138z"/>
			<path d="M304.704,228.593c-7.578,7.578-18.116,11.477-29.841,11.477c-5.359,0-10.974-0.87-16.657-2.517l9.242,19.806
				c1.331,2.867,0.981,6.221-0.93,8.747c-1.894,2.526-5.035,3.814-8.158,3.285l-24.823-3.968l-12.919,21.564
				c-1.536,2.577-4.309,4.13-7.279,4.147V487.4h273.067c14.114,0,25.6-11.486,25.6-25.6V188.733H320.516
				C317.965,205.433,313.348,219.948,304.704,228.593z"/>
			<path d="M486.404,26.604H213.338v79.334c14.421-18.97,36.463-45.534,62.029-45.534c0.23,0,0.461,0.009,0.691,0.009
				c18.859,0.367,33.869,9.097,42.3,24.585h0.009c4.019,7.398,5.495,23.919,5.803,35.473h187.836V52.204
				C512.004,38.082,500.518,26.604,486.404,26.604z"/>
			<path d="M255.995,188.425c-1.783,0-3.575-0.555-5.12-1.707l-22.741-17.067c-0.879,2.876-2.039,5.615-3.396,8.243
				c0.026,0.324,0.043,0.64,0.077,0.964c0.128,1.476,0.35,2.918,0.631,4.343c0.162,0.777,0.282,1.562,0.486,2.33
				c0.486,1.826,1.092,3.61,1.809,5.333c0.41,0.981,0.93,1.929,1.417,2.893c0.444,0.87,0.888,1.741,1.382,2.586
				c0.589,0.998,1.229,1.98,1.894,2.953c0.503,0.708,1.024,1.399,1.562,2.091c0.759,0.981,1.519,1.963,2.364,2.91
				c0.375,0.41,0.777,0.794,1.161,1.195c2.321,2.432,4.881,4.745,7.757,6.844c0.119,0.085,0.205,0.205,0.316,0.29
				c3.78,2.731,7.791,4.966,11.802,6.622c11.136,4.591,26.223,6.306,35.243-2.722c6.963-6.963,10.377-23.074,12.117-39.313
				c0.247-2.33,0.469-4.651,0.657-6.963c0.102-1.289,0.188-2.552,0.273-3.823c0.137-2.022,0.265-4.036,0.358-5.999
				c0.06-1.067,0.111-2.099,0.154-3.123c0.239-5.734,0.367-11.11,0.461-15.693c0-0.077,0-0.162,0.009-0.23
				c0.094-5.035,0.188-9.054,0.384-11.571c0.034-0.35,0.034-0.836,0.051-1.22v-0.034c0.503-9.498-1.178-30.694-3.738-35.405
				c-5.53-10.146-14.814-15.428-27.631-15.667c-0.119,0-0.239-0.008-0.35-0.008c-19.328,0-41.421,29.406-52.07,43.58
				c-0.904,1.195-1.758,2.33-2.56,3.388c2.167,2.995,3.857,6.255,5.316,9.609c0.23,0.521,0.444,1.058,0.657,1.587
				c0.435,1.126,0.947,2.21,1.306,3.362l22.852-17.135c3.772-2.833,9.122-2.074,11.947,1.707c2.833,3.772,2.065,9.122-1.707,11.947
				l-25.028,18.765l25.037,18.782c3.763,2.825,4.531,8.175,1.698,11.955C261.158,187.248,258.589,188.425,255.995,188.425z"/>
			<polygon points="162.138,255.242 162.138,487.4 196.271,487.4 196.271,262.973 178.684,218.967 			"/>
		</g>
	</g>
</g>
</svg>